<mxfile host="app.diagrams.net" modified="2023-10-23T19:11:28.858Z" agent="Mozilla/5.0 (Windows NT 10.0; Win64; x64) AppleWebKit/537.36 (KHTML, like Gecko) Chrome/118.0.0.0 Safari/537.36" etag="Uabcke30LUa0I6wcwnr6" version="22.0.6" type="google">
  <diagram name="Página-1" id="JDFYoqCE-vyvq5qXCesq">
    <mxGraphModel grid="1" page="1" gridSize="10" guides="1" tooltips="1" connect="1" arrows="1" fold="1" pageScale="1" pageWidth="827" pageHeight="1169" math="0" shadow="0">
      <root>
        <mxCell id="0" />
        <mxCell id="1" parent="0" />
        <mxCell id="VDo1j2sRn1x3x7xI_nRA-56" style="edgeStyle=orthogonalEdgeStyle;rounded=0;orthogonalLoop=1;jettySize=auto;html=1;entryX=0;entryY=0.5;entryDx=0;entryDy=0;" edge="1" parent="1" target="VDo1j2sRn1x3x7xI_nRA-53">
          <mxGeometry relative="1" as="geometry">
            <mxPoint x="280" y="421" as="sourcePoint" />
          </mxGeometry>
        </mxCell>
        <mxCell id="VDo1j2sRn1x3x7xI_nRA-3" value="analisis" style="ellipse;whiteSpace=wrap;html=1;" vertex="1" parent="1">
          <mxGeometry x="150" y="386" width="130" height="70" as="geometry" />
        </mxCell>
        <mxCell id="VDo1j2sRn1x3x7xI_nRA-4" value="tiempos" style="swimlane;fontStyle=0;childLayout=stackLayout;horizontal=1;startSize=26;fillColor=none;horizontalStack=0;resizeParent=1;resizeParentMax=0;resizeLast=0;collapsible=1;marginBottom=0;whiteSpace=wrap;html=1;" vertex="1" parent="1">
          <mxGeometry x="-300" y="-170" width="274" height="494" as="geometry" />
        </mxCell>
        <mxCell id="VDo1j2sRn1x3x7xI_nRA-5" value="análisis&amp;nbsp;" style="text;strokeColor=none;fillColor=none;align=left;verticalAlign=top;spacingLeft=4;spacingRight=4;overflow=hidden;rotatable=0;points=[[0,0.5],[1,0.5]];portConstraint=eastwest;whiteSpace=wrap;html=1;" vertex="1" parent="VDo1j2sRn1x3x7xI_nRA-4">
          <mxGeometry y="26" width="274" height="26" as="geometry" />
        </mxCell>
        <mxCell id="VDo1j2sRn1x3x7xI_nRA-9" value="hacer el backlog" style="text;html=1;align=left;verticalAlign=middle;resizable=0;points=[];autosize=1;strokeColor=none;fillColor=none;" vertex="1" parent="VDo1j2sRn1x3x7xI_nRA-4">
          <mxGeometry y="52" width="274" height="30" as="geometry" />
        </mxCell>
        <mxCell id="VDo1j2sRn1x3x7xI_nRA-6" value="división de tareas&lt;br&gt;" style="text;strokeColor=none;fillColor=none;align=left;verticalAlign=top;spacingLeft=4;spacingRight=4;overflow=hidden;rotatable=0;points=[[0,0.5],[1,0.5]];portConstraint=eastwest;whiteSpace=wrap;html=1;" vertex="1" parent="VDo1j2sRn1x3x7xI_nRA-4">
          <mxGeometry y="82" width="274" height="26" as="geometry" />
        </mxCell>
        <mxCell id="VDo1j2sRn1x3x7xI_nRA-10" value="hacer el gantt" style="text;html=1;align=left;verticalAlign=middle;resizable=0;points=[];autosize=1;strokeColor=none;fillColor=none;" vertex="1" parent="VDo1j2sRn1x3x7xI_nRA-4">
          <mxGeometry y="108" width="274" height="30" as="geometry" />
        </mxCell>
        <mxCell id="VDo1j2sRn1x3x7xI_nRA-7" value="hacer el caso critico" style="text;strokeColor=none;fillColor=none;align=left;verticalAlign=top;spacingLeft=4;spacingRight=4;overflow=hidden;rotatable=0;points=[[0,0.5],[1,0.5]];portConstraint=eastwest;whiteSpace=wrap;html=1;" vertex="1" parent="VDo1j2sRn1x3x7xI_nRA-4">
          <mxGeometry y="138" width="274" height="26" as="geometry" />
        </mxCell>
        <mxCell id="VDo1j2sRn1x3x7xI_nRA-15" value="hacer el UML" style="text;html=1;align=left;verticalAlign=middle;resizable=0;points=[];autosize=1;strokeColor=none;fillColor=none;" vertex="1" parent="VDo1j2sRn1x3x7xI_nRA-4">
          <mxGeometry y="164" width="274" height="30" as="geometry" />
        </mxCell>
        <mxCell id="VDo1j2sRn1x3x7xI_nRA-23" value="hacer caso de uso" style="text;html=1;align=left;verticalAlign=middle;resizable=0;points=[];autosize=1;strokeColor=none;fillColor=none;" vertex="1" parent="VDo1j2sRn1x3x7xI_nRA-4">
          <mxGeometry y="194" width="274" height="30" as="geometry" />
        </mxCell>
        <mxCell id="VDo1j2sRn1x3x7xI_nRA-29" value="Diagrama de flujo de Datos" style="text;html=1;strokeColor=none;fillColor=none;align=left;verticalAlign=middle;whiteSpace=wrap;rounded=0;" vertex="1" parent="VDo1j2sRn1x3x7xI_nRA-4">
          <mxGeometry y="224" width="274" height="30" as="geometry" />
        </mxCell>
        <mxCell id="VDo1j2sRn1x3x7xI_nRA-30" value="Diagrama de Transaccion de datos&amp;nbsp;" style="text;html=1;strokeColor=none;fillColor=none;align=left;verticalAlign=middle;whiteSpace=wrap;rounded=0;" vertex="1" parent="VDo1j2sRn1x3x7xI_nRA-4">
          <mxGeometry y="254" width="274" height="30" as="geometry" />
        </mxCell>
        <mxCell id="VDo1j2sRn1x3x7xI_nRA-31" value="Tablero kanban" style="text;html=1;strokeColor=none;fillColor=none;align=left;verticalAlign=middle;whiteSpace=wrap;rounded=0;" vertex="1" parent="VDo1j2sRn1x3x7xI_nRA-4">
          <mxGeometry y="284" width="274" height="30" as="geometry" />
        </mxCell>
        <mxCell id="VDo1j2sRn1x3x7xI_nRA-17" value="hacer el canvan" style="text;html=1;align=left;verticalAlign=middle;resizable=0;points=[];autosize=1;strokeColor=none;fillColor=none;" vertex="1" parent="VDo1j2sRn1x3x7xI_nRA-4">
          <mxGeometry y="314" width="274" height="30" as="geometry" />
        </mxCell>
        <mxCell id="VDo1j2sRn1x3x7xI_nRA-33" value="Crear el diagrama de entidad (DER)" style="text;html=1;strokeColor=none;fillColor=none;align=left;verticalAlign=middle;whiteSpace=wrap;rounded=0;" vertex="1" parent="VDo1j2sRn1x3x7xI_nRA-4">
          <mxGeometry y="344" width="274" height="30" as="geometry" />
        </mxCell>
        <mxCell id="VDo1j2sRn1x3x7xI_nRA-34" value="Actualizar el Camino critico, gantt y DER" style="text;html=1;strokeColor=none;fillColor=none;align=left;verticalAlign=middle;whiteSpace=wrap;rounded=0;" vertex="1" parent="VDo1j2sRn1x3x7xI_nRA-4">
          <mxGeometry y="374" width="274" height="30" as="geometry" />
        </mxCell>
        <mxCell id="VDo1j2sRn1x3x7xI_nRA-46" value="hacer mysql" style="text;html=1;align=left;verticalAlign=middle;resizable=0;points=[];autosize=1;strokeColor=none;fillColor=none;" vertex="1" parent="VDo1j2sRn1x3x7xI_nRA-4">
          <mxGeometry y="404" width="274" height="30" as="geometry" />
        </mxCell>
        <mxCell id="VDo1j2sRn1x3x7xI_nRA-47" value="hacer la parte funcional de la pagina" style="text;html=1;align=left;verticalAlign=middle;resizable=0;points=[];autosize=1;strokeColor=none;fillColor=none;" vertex="1" parent="VDo1j2sRn1x3x7xI_nRA-4">
          <mxGeometry y="434" width="274" height="30" as="geometry" />
        </mxCell>
        <mxCell id="VDo1j2sRn1x3x7xI_nRA-48" value="hacer la parte estética de la pagina" style="text;html=1;align=left;verticalAlign=middle;resizable=0;points=[];autosize=1;strokeColor=none;fillColor=none;" vertex="1" parent="VDo1j2sRn1x3x7xI_nRA-4">
          <mxGeometry y="464" width="274" height="30" as="geometry" />
        </mxCell>
        <mxCell id="VDo1j2sRn1x3x7xI_nRA-8" value="0.021 d" style="text;html=1;align=center;verticalAlign=middle;resizable=0;points=[];autosize=1;strokeColor=none;fillColor=none;" vertex="1" parent="1">
          <mxGeometry x="-84" y="-144" width="60" height="30" as="geometry" />
        </mxCell>
        <mxCell id="VDo1j2sRn1x3x7xI_nRA-13" value="0.125 d" style="text;html=1;align=center;verticalAlign=middle;resizable=0;points=[];autosize=1;strokeColor=none;fillColor=none;" vertex="1" parent="1">
          <mxGeometry x="-80" y="-117" width="60" height="30" as="geometry" />
        </mxCell>
        <mxCell id="VDo1j2sRn1x3x7xI_nRA-35" value="0.006 d" style="text;html=1;align=center;verticalAlign=middle;resizable=0;points=[];autosize=1;strokeColor=none;fillColor=none;" vertex="1" parent="1">
          <mxGeometry x="-82" y="-91" width="60" height="30" as="geometry" />
        </mxCell>
        <mxCell id="VDo1j2sRn1x3x7xI_nRA-36" value="0.01 d" style="text;html=1;align=center;verticalAlign=middle;resizable=0;points=[];autosize=1;strokeColor=none;fillColor=none;" vertex="1" parent="1">
          <mxGeometry x="-80" y="-64" width="60" height="30" as="geometry" />
        </mxCell>
        <mxCell id="VDo1j2sRn1x3x7xI_nRA-37" value="0.02 d" style="text;html=1;align=center;verticalAlign=middle;resizable=0;points=[];autosize=1;strokeColor=none;fillColor=none;" vertex="1" parent="1">
          <mxGeometry x="-79" y="-37" width="60" height="30" as="geometry" />
        </mxCell>
        <mxCell id="VDo1j2sRn1x3x7xI_nRA-38" value="0.027 d" style="text;html=1;align=center;verticalAlign=middle;resizable=0;points=[];autosize=1;strokeColor=none;fillColor=none;" vertex="1" parent="1">
          <mxGeometry x="-79" y="-8" width="60" height="30" as="geometry" />
        </mxCell>
        <mxCell id="VDo1j2sRn1x3x7xI_nRA-39" value="7 d" style="text;html=1;align=center;verticalAlign=middle;resizable=0;points=[];autosize=1;strokeColor=none;fillColor=none;" vertex="1" parent="1">
          <mxGeometry x="-65" y="143" width="40" height="30" as="geometry" />
        </mxCell>
        <mxCell id="VDo1j2sRn1x3x7xI_nRA-40" value="0.027 d" style="text;html=1;align=center;verticalAlign=middle;resizable=0;points=[];autosize=1;strokeColor=none;fillColor=none;" vertex="1" parent="1">
          <mxGeometry x="-81" y="23" width="60" height="30" as="geometry" />
        </mxCell>
        <mxCell id="VDo1j2sRn1x3x7xI_nRA-41" value="0.027 d" style="text;html=1;align=center;verticalAlign=middle;resizable=0;points=[];autosize=1;strokeColor=none;fillColor=none;" vertex="1" parent="1">
          <mxGeometry x="-79" y="54" width="60" height="30" as="geometry" />
        </mxCell>
        <mxCell id="VDo1j2sRn1x3x7xI_nRA-42" value="0.027 d" style="text;html=1;align=center;verticalAlign=middle;resizable=0;points=[];autosize=1;strokeColor=none;fillColor=none;" vertex="1" parent="1">
          <mxGeometry x="-79" y="84" width="60" height="30" as="geometry" />
        </mxCell>
        <mxCell id="VDo1j2sRn1x3x7xI_nRA-43" value="0.027 d" style="text;html=1;align=center;verticalAlign=middle;resizable=0;points=[];autosize=1;strokeColor=none;fillColor=none;" vertex="1" parent="1">
          <mxGeometry x="-81" y="113" width="60" height="30" as="geometry" />
        </mxCell>
        <mxCell id="VDo1j2sRn1x3x7xI_nRA-44" value="0.027 d" style="text;html=1;align=center;verticalAlign=middle;resizable=0;points=[];autosize=1;strokeColor=none;fillColor=none;" vertex="1" parent="1">
          <mxGeometry x="-83" y="204" width="60" height="30" as="geometry" />
        </mxCell>
        <mxCell id="VDo1j2sRn1x3x7xI_nRA-45" value="0.027 d" style="text;html=1;align=center;verticalAlign=middle;resizable=0;points=[];autosize=1;strokeColor=none;fillColor=none;" vertex="1" parent="1">
          <mxGeometry x="-86" y="178" width="60" height="30" as="geometry" />
        </mxCell>
        <mxCell id="VDo1j2sRn1x3x7xI_nRA-49" value="4 d" style="text;html=1;align=center;verticalAlign=middle;resizable=0;points=[];autosize=1;strokeColor=none;fillColor=none;" vertex="1" parent="1">
          <mxGeometry x="-66" y="266" width="40" height="30" as="geometry" />
        </mxCell>
        <mxCell id="VDo1j2sRn1x3x7xI_nRA-50" value="0.041 d" style="text;html=1;align=center;verticalAlign=middle;resizable=0;points=[];autosize=1;strokeColor=none;fillColor=none;" vertex="1" parent="1">
          <mxGeometry x="-86" y="237" width="60" height="30" as="geometry" />
        </mxCell>
        <mxCell id="VDo1j2sRn1x3x7xI_nRA-51" value="7 d" style="text;html=1;align=center;verticalAlign=middle;resizable=0;points=[];autosize=1;strokeColor=none;fillColor=none;" vertex="1" parent="1">
          <mxGeometry x="-71" y="295" width="40" height="30" as="geometry" />
        </mxCell>
        <mxCell id="VDo1j2sRn1x3x7xI_nRA-52" value="" style="shape=umlDestroy;whiteSpace=wrap;html=1;strokeWidth=3;targetShapes=umlLifeline;rotation=45;" vertex="1" parent="1">
          <mxGeometry x="200" y="340" width="30" height="30" as="geometry" />
        </mxCell>
        <mxCell id="VDo1j2sRn1x3x7xI_nRA-53" value="Hacer el Backlog" style="ellipse;whiteSpace=wrap;html=1;" vertex="1" parent="1">
          <mxGeometry x="360" y="386" width="130" height="70" as="geometry" />
        </mxCell>
        <mxCell id="VDo1j2sRn1x3x7xI_nRA-54" value="" style="shape=umlDestroy;whiteSpace=wrap;html=1;strokeWidth=3;targetShapes=umlLifeline;rotation=45;" vertex="1" parent="1">
          <mxGeometry x="410" y="336" width="30" height="30" as="geometry" />
        </mxCell>
        <mxCell id="VDo1j2sRn1x3x7xI_nRA-55" value="0.021 d" style="text;html=1;align=center;verticalAlign=middle;resizable=0;points=[];autosize=1;strokeColor=none;fillColor=none;" vertex="1" parent="1">
          <mxGeometry x="185" y="470" width="60" height="30" as="geometry" />
        </mxCell>
        <mxCell id="VDo1j2sRn1x3x7xI_nRA-57" value="" style="endArrow=classic;html=1;rounded=0;" edge="1" parent="1">
          <mxGeometry width="50" height="50" relative="1" as="geometry">
            <mxPoint x="490" y="416" as="sourcePoint" />
            <mxPoint x="550" y="416" as="targetPoint" />
          </mxGeometry>
        </mxCell>
        <mxCell id="VDo1j2sRn1x3x7xI_nRA-68" style="edgeStyle=orthogonalEdgeStyle;rounded=0;orthogonalLoop=1;jettySize=auto;html=1;entryX=0;entryY=0.5;entryDx=0;entryDy=0;" edge="1" parent="1" source="VDo1j2sRn1x3x7xI_nRA-59" target="VDo1j2sRn1x3x7xI_nRA-61">
          <mxGeometry relative="1" as="geometry">
            <Array as="points">
              <mxPoint x="710" y="421" />
              <mxPoint x="710" y="242" />
            </Array>
          </mxGeometry>
        </mxCell>
        <mxCell id="VDo1j2sRn1x3x7xI_nRA-59" value="división de tareas" style="ellipse;whiteSpace=wrap;html=1;" vertex="1" parent="1">
          <mxGeometry x="550" y="386" width="130" height="70" as="geometry" />
        </mxCell>
        <mxCell id="VDo1j2sRn1x3x7xI_nRA-60" value="" style="shape=umlDestroy;whiteSpace=wrap;html=1;strokeWidth=3;targetShapes=umlLifeline;rotation=45;" vertex="1" parent="1">
          <mxGeometry x="600" y="334" width="30" height="30" as="geometry" />
        </mxCell>
        <mxCell id="VDo1j2sRn1x3x7xI_nRA-69" style="edgeStyle=orthogonalEdgeStyle;rounded=0;orthogonalLoop=1;jettySize=auto;html=1;entryX=0;entryY=0.5;entryDx=0;entryDy=0;" edge="1" parent="1" source="VDo1j2sRn1x3x7xI_nRA-61" target="VDo1j2sRn1x3x7xI_nRA-65">
          <mxGeometry relative="1" as="geometry" />
        </mxCell>
        <mxCell id="VDo1j2sRn1x3x7xI_nRA-61" value="Hacer el caso critico" style="ellipse;whiteSpace=wrap;html=1;fillColor=#f8cecc;strokeColor=#b85450;" vertex="1" parent="1">
          <mxGeometry x="740" y="207" width="130" height="70" as="geometry" />
        </mxCell>
        <mxCell id="VDo1j2sRn1x3x7xI_nRA-62" value="" style="shape=umlDestroy;whiteSpace=wrap;html=1;strokeWidth=3;targetShapes=umlLifeline;rotation=45;" vertex="1" parent="1">
          <mxGeometry x="790" y="157" width="30" height="30" as="geometry" />
        </mxCell>
        <mxCell id="VDo1j2sRn1x3x7xI_nRA-70" style="edgeStyle=orthogonalEdgeStyle;rounded=0;orthogonalLoop=1;jettySize=auto;html=1;" edge="1" parent="1" source="VDo1j2sRn1x3x7xI_nRA-63">
          <mxGeometry relative="1" as="geometry">
            <mxPoint x="940" y="420" as="targetPoint" />
          </mxGeometry>
        </mxCell>
        <mxCell id="VDo1j2sRn1x3x7xI_nRA-63" value="hacer el gantt" style="ellipse;whiteSpace=wrap;html=1;" vertex="1" parent="1">
          <mxGeometry x="740" y="385" width="130" height="70" as="geometry" />
        </mxCell>
        <mxCell id="VDo1j2sRn1x3x7xI_nRA-64" value="" style="shape=umlDestroy;whiteSpace=wrap;html=1;strokeWidth=3;targetShapes=umlLifeline;rotation=45;" vertex="1" parent="1">
          <mxGeometry x="790" y="335" width="30" height="30" as="geometry" />
        </mxCell>
        <mxCell id="VDo1j2sRn1x3x7xI_nRA-77" style="edgeStyle=orthogonalEdgeStyle;rounded=0;orthogonalLoop=1;jettySize=auto;html=1;entryX=0;entryY=0.5;entryDx=0;entryDy=0;" edge="1" parent="1" source="VDo1j2sRn1x3x7xI_nRA-65" target="VDo1j2sRn1x3x7xI_nRA-71">
          <mxGeometry relative="1" as="geometry" />
        </mxCell>
        <mxCell id="VDo1j2sRn1x3x7xI_nRA-78" style="edgeStyle=orthogonalEdgeStyle;rounded=0;orthogonalLoop=1;jettySize=auto;html=1;exitX=1;exitY=0.5;exitDx=0;exitDy=0;entryX=0;entryY=0.5;entryDx=0;entryDy=0;" edge="1" parent="1" source="VDo1j2sRn1x3x7xI_nRA-65" target="VDo1j2sRn1x3x7xI_nRA-73">
          <mxGeometry relative="1" as="geometry">
            <Array as="points">
              <mxPoint x="1090" y="420" />
              <mxPoint x="1090" y="248" />
            </Array>
          </mxGeometry>
        </mxCell>
        <mxCell id="VDo1j2sRn1x3x7xI_nRA-79" style="edgeStyle=orthogonalEdgeStyle;rounded=0;orthogonalLoop=1;jettySize=auto;html=1;exitX=1;exitY=0.5;exitDx=0;exitDy=0;entryX=0;entryY=0.5;entryDx=0;entryDy=0;" edge="1" parent="1" source="VDo1j2sRn1x3x7xI_nRA-65" target="VDo1j2sRn1x3x7xI_nRA-75">
          <mxGeometry relative="1" as="geometry">
            <Array as="points">
              <mxPoint x="1090" y="420" />
              <mxPoint x="1090" y="593" />
            </Array>
          </mxGeometry>
        </mxCell>
        <mxCell id="VDo1j2sRn1x3x7xI_nRA-65" value="Hacer el uml" style="ellipse;whiteSpace=wrap;html=1;" vertex="1" parent="1">
          <mxGeometry x="940" y="385" width="130" height="70" as="geometry" />
        </mxCell>
        <mxCell id="VDo1j2sRn1x3x7xI_nRA-66" value="" style="shape=umlDestroy;whiteSpace=wrap;html=1;strokeWidth=3;targetShapes=umlLifeline;rotation=45;" vertex="1" parent="1">
          <mxGeometry x="990" y="335" width="30" height="30" as="geometry" />
        </mxCell>
        <mxCell id="VDo1j2sRn1x3x7xI_nRA-67" value="" style="endArrow=classic;html=1;rounded=0;entryX=0;entryY=0.5;entryDx=0;entryDy=0;exitX=1;exitY=0.5;exitDx=0;exitDy=0;" edge="1" parent="1" source="VDo1j2sRn1x3x7xI_nRA-59" target="VDo1j2sRn1x3x7xI_nRA-63">
          <mxGeometry width="50" height="50" relative="1" as="geometry">
            <mxPoint x="680" y="440" as="sourcePoint" />
            <mxPoint x="730" y="390" as="targetPoint" />
          </mxGeometry>
        </mxCell>
        <mxCell id="VDo1j2sRn1x3x7xI_nRA-85" style="edgeStyle=orthogonalEdgeStyle;rounded=0;orthogonalLoop=1;jettySize=auto;html=1;entryX=0;entryY=0.5;entryDx=0;entryDy=0;" edge="1" parent="1" source="VDo1j2sRn1x3x7xI_nRA-71" target="VDo1j2sRn1x3x7xI_nRA-80">
          <mxGeometry relative="1" as="geometry" />
        </mxCell>
        <mxCell id="VDo1j2sRn1x3x7xI_nRA-71" value="Diagrama de Flujo de Datos" style="ellipse;whiteSpace=wrap;html=1;" vertex="1" parent="1">
          <mxGeometry x="1120" y="386" width="130" height="70" as="geometry" />
        </mxCell>
        <mxCell id="VDo1j2sRn1x3x7xI_nRA-72" value="" style="shape=umlDestroy;whiteSpace=wrap;html=1;strokeWidth=3;targetShapes=umlLifeline;rotation=45;" vertex="1" parent="1">
          <mxGeometry x="1170" y="336" width="30" height="30" as="geometry" />
        </mxCell>
        <mxCell id="VDo1j2sRn1x3x7xI_nRA-105" style="edgeStyle=orthogonalEdgeStyle;rounded=0;orthogonalLoop=1;jettySize=auto;html=1;entryX=0;entryY=0.5;entryDx=0;entryDy=0;" edge="1" parent="1" source="VDo1j2sRn1x3x7xI_nRA-73" target="VDo1j2sRn1x3x7xI_nRA-80">
          <mxGeometry relative="1" as="geometry" />
        </mxCell>
        <mxCell id="VDo1j2sRn1x3x7xI_nRA-73" value="hacer el caso de uso" style="ellipse;whiteSpace=wrap;html=1;" vertex="1" parent="1">
          <mxGeometry x="1120" y="213" width="130" height="70" as="geometry" />
        </mxCell>
        <mxCell id="VDo1j2sRn1x3x7xI_nRA-74" value="" style="shape=umlDestroy;whiteSpace=wrap;html=1;strokeWidth=3;targetShapes=umlLifeline;rotation=45;" vertex="1" parent="1">
          <mxGeometry x="1170" y="157" width="30" height="30" as="geometry" />
        </mxCell>
        <mxCell id="VDo1j2sRn1x3x7xI_nRA-106" style="edgeStyle=orthogonalEdgeStyle;rounded=0;orthogonalLoop=1;jettySize=auto;html=1;entryX=0;entryY=0.5;entryDx=0;entryDy=0;" edge="1" parent="1" source="VDo1j2sRn1x3x7xI_nRA-75" target="VDo1j2sRn1x3x7xI_nRA-80">
          <mxGeometry relative="1" as="geometry" />
        </mxCell>
        <mxCell id="VDo1j2sRn1x3x7xI_nRA-75" value="Diagrama de transaccion de Datos" style="ellipse;whiteSpace=wrap;html=1;" vertex="1" parent="1">
          <mxGeometry x="1120" y="558" width="130" height="70" as="geometry" />
        </mxCell>
        <mxCell id="VDo1j2sRn1x3x7xI_nRA-76" value="" style="shape=umlDestroy;whiteSpace=wrap;html=1;strokeWidth=3;targetShapes=umlLifeline;rotation=45;" vertex="1" parent="1">
          <mxGeometry x="1170" y="508" width="30" height="30" as="geometry" />
        </mxCell>
        <mxCell id="VDo1j2sRn1x3x7xI_nRA-86" style="edgeStyle=orthogonalEdgeStyle;rounded=0;orthogonalLoop=1;jettySize=auto;html=1;entryX=0;entryY=0.5;entryDx=0;entryDy=0;" edge="1" parent="1" source="VDo1j2sRn1x3x7xI_nRA-80" target="VDo1j2sRn1x3x7xI_nRA-82">
          <mxGeometry relative="1" as="geometry" />
        </mxCell>
        <mxCell id="VDo1j2sRn1x3x7xI_nRA-80" value="Tablero Kanban" style="ellipse;whiteSpace=wrap;html=1;" vertex="1" parent="1">
          <mxGeometry x="1300" y="386" width="130" height="70" as="geometry" />
        </mxCell>
        <mxCell id="VDo1j2sRn1x3x7xI_nRA-81" value="" style="shape=umlDestroy;whiteSpace=wrap;html=1;strokeWidth=3;targetShapes=umlLifeline;rotation=45;" vertex="1" parent="1">
          <mxGeometry x="1350" y="336" width="30" height="30" as="geometry" />
        </mxCell>
        <mxCell id="VDo1j2sRn1x3x7xI_nRA-89" style="edgeStyle=orthogonalEdgeStyle;rounded=0;orthogonalLoop=1;jettySize=auto;html=1;entryX=0;entryY=0.5;entryDx=0;entryDy=0;" edge="1" parent="1" source="VDo1j2sRn1x3x7xI_nRA-82" target="VDo1j2sRn1x3x7xI_nRA-87">
          <mxGeometry relative="1" as="geometry" />
        </mxCell>
        <mxCell id="VDo1j2sRn1x3x7xI_nRA-82" value="Hacer el canva" style="ellipse;whiteSpace=wrap;html=1;" vertex="1" parent="1">
          <mxGeometry x="1480" y="386" width="130" height="70" as="geometry" />
        </mxCell>
        <mxCell id="VDo1j2sRn1x3x7xI_nRA-83" value="" style="shape=umlDestroy;whiteSpace=wrap;html=1;strokeWidth=3;targetShapes=umlLifeline;rotation=45;" vertex="1" parent="1">
          <mxGeometry x="1530" y="336" width="30" height="30" as="geometry" />
        </mxCell>
        <mxCell id="VDo1j2sRn1x3x7xI_nRA-92" style="edgeStyle=orthogonalEdgeStyle;rounded=0;orthogonalLoop=1;jettySize=auto;html=1;entryX=0;entryY=0.5;entryDx=0;entryDy=0;" edge="1" parent="1" source="VDo1j2sRn1x3x7xI_nRA-87" target="VDo1j2sRn1x3x7xI_nRA-90">
          <mxGeometry relative="1" as="geometry" />
        </mxCell>
        <mxCell id="VDo1j2sRn1x3x7xI_nRA-87" value="Crear&amp;nbsp; DER" style="ellipse;whiteSpace=wrap;html=1;" vertex="1" parent="1">
          <mxGeometry x="1670" y="386" width="130" height="70" as="geometry" />
        </mxCell>
        <mxCell id="VDo1j2sRn1x3x7xI_nRA-88" value="" style="shape=umlDestroy;whiteSpace=wrap;html=1;strokeWidth=3;targetShapes=umlLifeline;rotation=45;" vertex="1" parent="1">
          <mxGeometry x="1720" y="336" width="30" height="30" as="geometry" />
        </mxCell>
        <mxCell id="VDo1j2sRn1x3x7xI_nRA-99" style="edgeStyle=orthogonalEdgeStyle;rounded=0;orthogonalLoop=1;jettySize=auto;html=1;exitX=1;exitY=0.5;exitDx=0;exitDy=0;entryX=0;entryY=0.5;entryDx=0;entryDy=0;" edge="1" parent="1" source="VDo1j2sRn1x3x7xI_nRA-90" target="VDo1j2sRn1x3x7xI_nRA-93">
          <mxGeometry relative="1" as="geometry">
            <Array as="points">
              <mxPoint x="2020" y="420" />
            </Array>
          </mxGeometry>
        </mxCell>
        <mxCell id="VDo1j2sRn1x3x7xI_nRA-102" style="edgeStyle=orthogonalEdgeStyle;rounded=0;orthogonalLoop=1;jettySize=auto;html=1;entryX=0;entryY=0.5;entryDx=0;entryDy=0;" edge="1" parent="1" source="VDo1j2sRn1x3x7xI_nRA-90" target="VDo1j2sRn1x3x7xI_nRA-95">
          <mxGeometry relative="1" as="geometry" />
        </mxCell>
        <mxCell id="VDo1j2sRn1x3x7xI_nRA-90" value="Actualizar el Camino critico, gantt y DER" style="ellipse;whiteSpace=wrap;html=1;" vertex="1" parent="1">
          <mxGeometry x="1850" y="385" width="130" height="70" as="geometry" />
        </mxCell>
        <mxCell id="VDo1j2sRn1x3x7xI_nRA-91" value="" style="shape=umlDestroy;whiteSpace=wrap;html=1;strokeWidth=3;targetShapes=umlLifeline;rotation=45;" vertex="1" parent="1">
          <mxGeometry x="1900" y="335" width="30" height="30" as="geometry" />
        </mxCell>
        <mxCell id="VDo1j2sRn1x3x7xI_nRA-104" style="edgeStyle=orthogonalEdgeStyle;rounded=0;orthogonalLoop=1;jettySize=auto;html=1;entryX=0;entryY=0.5;entryDx=0;entryDy=0;" edge="1" parent="1" source="VDo1j2sRn1x3x7xI_nRA-93" target="VDo1j2sRn1x3x7xI_nRA-97">
          <mxGeometry relative="1" as="geometry" />
        </mxCell>
        <mxCell id="VDo1j2sRn1x3x7xI_nRA-93" value="hacer mysql" style="ellipse;whiteSpace=wrap;html=1;" vertex="1" parent="1">
          <mxGeometry x="2040" y="187" width="130" height="70" as="geometry" />
        </mxCell>
        <mxCell id="VDo1j2sRn1x3x7xI_nRA-94" value="" style="shape=umlDestroy;whiteSpace=wrap;html=1;strokeWidth=3;targetShapes=umlLifeline;rotation=45;" vertex="1" parent="1">
          <mxGeometry x="2090" y="127" width="30" height="30" as="geometry" />
        </mxCell>
        <mxCell id="VDo1j2sRn1x3x7xI_nRA-103" style="edgeStyle=orthogonalEdgeStyle;rounded=0;orthogonalLoop=1;jettySize=auto;html=1;entryX=0;entryY=0.5;entryDx=0;entryDy=0;" edge="1" parent="1" source="VDo1j2sRn1x3x7xI_nRA-95" target="VDo1j2sRn1x3x7xI_nRA-97">
          <mxGeometry relative="1" as="geometry" />
        </mxCell>
        <mxCell id="VDo1j2sRn1x3x7xI_nRA-95" value="hacer la parte funcional de la pagina" style="ellipse;whiteSpace=wrap;html=1;fillColor=#f8cecc;strokeColor=#b85450;" vertex="1" parent="1">
          <mxGeometry x="2050" y="385" width="130" height="70" as="geometry" />
        </mxCell>
        <mxCell id="VDo1j2sRn1x3x7xI_nRA-96" value="" style="shape=umlDestroy;whiteSpace=wrap;html=1;strokeWidth=3;targetShapes=umlLifeline;rotation=45;" vertex="1" parent="1">
          <mxGeometry x="2100" y="330" width="30" height="30" as="geometry" />
        </mxCell>
        <mxCell id="VDo1j2sRn1x3x7xI_nRA-126" style="edgeStyle=orthogonalEdgeStyle;rounded=0;orthogonalLoop=1;jettySize=auto;html=1;exitX=1;exitY=0.5;exitDx=0;exitDy=0;entryX=0;entryY=0.5;entryDx=0;entryDy=0;" edge="1" parent="1" source="VDo1j2sRn1x3x7xI_nRA-97" target="VDo1j2sRn1x3x7xI_nRA-107">
          <mxGeometry relative="1" as="geometry" />
        </mxCell>
        <mxCell id="VDo1j2sRn1x3x7xI_nRA-97" value="hacer la parte estética de la pagina" style="ellipse;whiteSpace=wrap;html=1;" vertex="1" parent="1">
          <mxGeometry x="2240" y="385" width="130" height="70" as="geometry" />
        </mxCell>
        <mxCell id="VDo1j2sRn1x3x7xI_nRA-98" value="" style="shape=umlDestroy;whiteSpace=wrap;html=1;strokeWidth=3;targetShapes=umlLifeline;rotation=45;" vertex="1" parent="1">
          <mxGeometry x="2290" y="340" width="30" height="30" as="geometry" />
        </mxCell>
        <mxCell id="VDo1j2sRn1x3x7xI_nRA-107" value="FIN" style="ellipse;whiteSpace=wrap;html=1;" vertex="1" parent="1">
          <mxGeometry x="2430" y="385" width="130" height="70" as="geometry" />
        </mxCell>
        <mxCell id="VDo1j2sRn1x3x7xI_nRA-108" value="" style="shape=umlDestroy;whiteSpace=wrap;html=1;strokeWidth=3;targetShapes=umlLifeline;rotation=45;" vertex="1" parent="1">
          <mxGeometry x="2480" y="334" width="30" height="30" as="geometry" />
        </mxCell>
        <mxCell id="VDo1j2sRn1x3x7xI_nRA-109" value="0.125 d" style="text;html=1;strokeColor=none;fillColor=none;align=center;verticalAlign=middle;whiteSpace=wrap;rounded=0;" vertex="1" parent="1">
          <mxGeometry x="395" y="470" width="60" height="30" as="geometry" />
        </mxCell>
        <mxCell id="VDo1j2sRn1x3x7xI_nRA-110" value="0.006 d" style="text;html=1;strokeColor=none;fillColor=none;align=center;verticalAlign=middle;whiteSpace=wrap;rounded=0;" vertex="1" parent="1">
          <mxGeometry x="585" y="470" width="60" height="30" as="geometry" />
        </mxCell>
        <mxCell id="VDo1j2sRn1x3x7xI_nRA-111" value="0.01 d" style="text;html=1;strokeColor=none;fillColor=none;align=center;verticalAlign=middle;whiteSpace=wrap;rounded=0;" vertex="1" parent="1">
          <mxGeometry x="780" y="470" width="60" height="30" as="geometry" />
        </mxCell>
        <mxCell id="VDo1j2sRn1x3x7xI_nRA-112" value="0.027 d" style="text;html=1;strokeColor=none;fillColor=none;align=center;verticalAlign=middle;whiteSpace=wrap;rounded=0;" vertex="1" parent="1">
          <mxGeometry x="974" y="470" width="60" height="30" as="geometry" />
        </mxCell>
        <mxCell id="VDo1j2sRn1x3x7xI_nRA-113" value="0.02 d" style="text;html=1;strokeColor=none;fillColor=none;align=center;verticalAlign=middle;whiteSpace=wrap;rounded=0;" vertex="1" parent="1">
          <mxGeometry x="860" y="187" width="60" height="30" as="geometry" />
        </mxCell>
        <mxCell id="VDo1j2sRn1x3x7xI_nRA-114" value="0.027 d" style="text;html=1;strokeColor=none;fillColor=none;align=center;verticalAlign=middle;whiteSpace=wrap;rounded=0;" vertex="1" parent="1">
          <mxGeometry x="1220" y="440" width="60" height="30" as="geometry" />
        </mxCell>
        <mxCell id="VDo1j2sRn1x3x7xI_nRA-117" value="0.027 d" style="text;html=1;strokeColor=none;fillColor=none;align=center;verticalAlign=middle;whiteSpace=wrap;rounded=0;" vertex="1" parent="1">
          <mxGeometry x="1240" y="200" width="60" height="30" as="geometry" />
        </mxCell>
        <mxCell id="VDo1j2sRn1x3x7xI_nRA-118" value="0.027 d" style="text;html=1;strokeColor=none;fillColor=none;align=center;verticalAlign=middle;whiteSpace=wrap;rounded=0;" vertex="1" parent="1">
          <mxGeometry x="1220" y="660" width="60" height="30" as="geometry" />
        </mxCell>
        <mxCell id="VDo1j2sRn1x3x7xI_nRA-119" value="0.027 d" style="text;html=1;strokeColor=none;fillColor=none;align=center;verticalAlign=middle;whiteSpace=wrap;rounded=0;" vertex="1" parent="1">
          <mxGeometry x="1335" y="470" width="60" height="30" as="geometry" />
        </mxCell>
        <mxCell id="VDo1j2sRn1x3x7xI_nRA-120" value="7 d" style="text;html=1;strokeColor=none;fillColor=none;align=center;verticalAlign=middle;whiteSpace=wrap;rounded=0;" vertex="1" parent="1">
          <mxGeometry x="1515" y="470" width="60" height="30" as="geometry" />
        </mxCell>
        <mxCell id="VDo1j2sRn1x3x7xI_nRA-121" value="0.027 d" style="text;html=1;align=center;verticalAlign=middle;resizable=0;points=[];autosize=1;strokeColor=none;fillColor=none;" vertex="1" parent="1">
          <mxGeometry x="1710" y="468" width="60" height="30" as="geometry" />
        </mxCell>
        <mxCell id="VDo1j2sRn1x3x7xI_nRA-122" value="0.027 d" style="text;html=1;align=center;verticalAlign=middle;resizable=0;points=[];autosize=1;strokeColor=none;fillColor=none;" vertex="1" parent="1">
          <mxGeometry x="1885" y="468" width="60" height="30" as="geometry" />
        </mxCell>
        <mxCell id="VDo1j2sRn1x3x7xI_nRA-123" value="0.041 d" style="text;html=1;align=center;verticalAlign=middle;resizable=0;points=[];autosize=1;strokeColor=none;fillColor=none;" vertex="1" parent="1">
          <mxGeometry x="2160" y="170" width="60" height="30" as="geometry" />
        </mxCell>
        <mxCell id="VDo1j2sRn1x3x7xI_nRA-124" value="4 d" style="text;html=1;align=center;verticalAlign=middle;resizable=0;points=[];autosize=1;strokeColor=none;fillColor=none;" vertex="1" parent="1">
          <mxGeometry x="2100" y="468" width="40" height="30" as="geometry" />
        </mxCell>
        <mxCell id="VDo1j2sRn1x3x7xI_nRA-125" value="7 d" style="text;html=1;align=center;verticalAlign=middle;resizable=0;points=[];autosize=1;strokeColor=none;fillColor=none;" vertex="1" parent="1">
          <mxGeometry x="2285" y="468" width="40" height="30" as="geometry" />
        </mxCell>
        <mxCell id="VDo1j2sRn1x3x7xI_nRA-127" value="inicio" style="ellipse;whiteSpace=wrap;html=1;" vertex="1" parent="1">
          <mxGeometry x="-19" y="385" width="130" height="70" as="geometry" />
        </mxCell>
        <mxCell id="VDo1j2sRn1x3x7xI_nRA-128" value="" style="shape=umlDestroy;whiteSpace=wrap;html=1;strokeWidth=3;targetShapes=umlLifeline;rotation=45;" vertex="1" parent="1">
          <mxGeometry x="31" y="335" width="30" height="30" as="geometry" />
        </mxCell>
        <mxCell id="VDo1j2sRn1x3x7xI_nRA-130" value="0 d" style="text;html=1;align=center;verticalAlign=middle;resizable=0;points=[];autosize=1;strokeColor=none;fillColor=none;" vertex="1" parent="1">
          <mxGeometry x="21" y="468" width="40" height="30" as="geometry" />
        </mxCell>
        <mxCell id="VDo1j2sRn1x3x7xI_nRA-133" value="0 d" style="text;html=1;align=center;verticalAlign=middle;resizable=0;points=[];autosize=1;strokeColor=none;fillColor=none;" vertex="1" parent="1">
          <mxGeometry x="2480" y="468" width="40" height="30" as="geometry" />
        </mxCell>
        <mxCell id="VDo1j2sRn1x3x7xI_nRA-134" value="0" style="text;html=1;align=center;verticalAlign=middle;resizable=0;points=[];autosize=1;strokeColor=none;fillColor=none;" vertex="1" parent="1">
          <mxGeometry x="20" y="324" width="30" height="30" as="geometry" />
        </mxCell>
        <mxCell id="VDo1j2sRn1x3x7xI_nRA-135" value="0" style="text;html=1;align=center;verticalAlign=middle;resizable=0;points=[];autosize=1;strokeColor=none;fillColor=none;" vertex="1" parent="1">
          <mxGeometry x="40" y="325" width="30" height="30" as="geometry" />
        </mxCell>
        <mxCell id="VDo1j2sRn1x3x7xI_nRA-136" value="0" style="text;html=1;align=center;verticalAlign=middle;resizable=0;points=[];autosize=1;strokeColor=none;fillColor=none;" vertex="1" parent="1">
          <mxGeometry x="185" y="325" width="30" height="30" as="geometry" />
        </mxCell>
        <mxCell id="VDo1j2sRn1x3x7xI_nRA-137" value="0.021 d" style="text;html=1;align=center;verticalAlign=middle;resizable=0;points=[];autosize=1;strokeColor=none;fillColor=none;" vertex="1" parent="1">
          <mxGeometry x="210" y="325" width="60" height="30" as="geometry" />
        </mxCell>
        <mxCell id="VDo1j2sRn1x3x7xI_nRA-138" value="0.021 d" style="text;html=1;align=center;verticalAlign=middle;resizable=0;points=[];autosize=1;strokeColor=none;fillColor=none;" vertex="1" parent="1">
          <mxGeometry x="370" y="324" width="60" height="30" as="geometry" />
        </mxCell>
        <mxCell id="VDo1j2sRn1x3x7xI_nRA-139" value="0.146 d" style="text;html=1;align=center;verticalAlign=middle;resizable=0;points=[];autosize=1;strokeColor=none;fillColor=none;" vertex="1" parent="1">
          <mxGeometry x="420" y="324" width="60" height="30" as="geometry" />
        </mxCell>
        <mxCell id="VDo1j2sRn1x3x7xI_nRA-140" value="0.146 d" style="text;html=1;align=center;verticalAlign=middle;resizable=0;points=[];autosize=1;strokeColor=none;fillColor=none;" vertex="1" parent="1">
          <mxGeometry x="560" y="320" width="60" height="30" as="geometry" />
        </mxCell>
        <mxCell id="VDo1j2sRn1x3x7xI_nRA-141" value="0.152 d" style="text;html=1;align=center;verticalAlign=middle;resizable=0;points=[];autosize=1;strokeColor=none;fillColor=none;" vertex="1" parent="1">
          <mxGeometry x="610" y="320" width="60" height="30" as="geometry" />
        </mxCell>
        <mxCell id="VDo1j2sRn1x3x7xI_nRA-142" value="0.152 d" style="text;html=1;align=center;verticalAlign=middle;resizable=0;points=[];autosize=1;strokeColor=none;fillColor=none;" vertex="1" parent="1">
          <mxGeometry x="750" y="144" width="60" height="30" as="geometry" />
        </mxCell>
        <mxCell id="VDo1j2sRn1x3x7xI_nRA-144" value="0.172 d" style="text;html=1;align=center;verticalAlign=middle;resizable=0;points=[];autosize=1;strokeColor=none;fillColor=none;" vertex="1" parent="1">
          <mxGeometry x="800" y="143" width="60" height="30" as="geometry" />
        </mxCell>
        <mxCell id="VDo1j2sRn1x3x7xI_nRA-145" value="0.162 d" style="text;html=1;align=center;verticalAlign=middle;resizable=0;points=[];autosize=1;strokeColor=none;fillColor=none;" vertex="1" parent="1">
          <mxGeometry x="800" y="324" width="60" height="30" as="geometry" />
        </mxCell>
        <mxCell id="VDo1j2sRn1x3x7xI_nRA-146" value="0.152 d" style="text;html=1;align=center;verticalAlign=middle;resizable=0;points=[];autosize=1;strokeColor=none;fillColor=none;" vertex="1" parent="1">
          <mxGeometry x="750" y="324" width="60" height="30" as="geometry" />
        </mxCell>
        <mxCell id="VDo1j2sRn1x3x7xI_nRA-147" value="0.162 d" style="text;html=1;align=center;verticalAlign=middle;resizable=0;points=[];autosize=1;strokeColor=none;fillColor=none;" vertex="1" parent="1">
          <mxGeometry x="950" y="325" width="60" height="30" as="geometry" />
        </mxCell>
        <mxCell id="VDo1j2sRn1x3x7xI_nRA-148" value="0.189 d" style="text;html=1;align=center;verticalAlign=middle;resizable=0;points=[];autosize=1;strokeColor=none;fillColor=none;" vertex="1" parent="1">
          <mxGeometry x="1000" y="324" width="60" height="30" as="geometry" />
        </mxCell>
        <mxCell id="VDo1j2sRn1x3x7xI_nRA-149" value="0.189 d" style="text;html=1;align=center;verticalAlign=middle;resizable=0;points=[];autosize=1;strokeColor=none;fillColor=none;" vertex="1" parent="1">
          <mxGeometry x="1130" y="144" width="60" height="30" as="geometry" />
        </mxCell>
        <mxCell id="VDo1j2sRn1x3x7xI_nRA-150" value="0.189 d" style="text;html=1;align=center;verticalAlign=middle;resizable=0;points=[];autosize=1;strokeColor=none;fillColor=none;" vertex="1" parent="1">
          <mxGeometry x="1130" y="325" width="60" height="30" as="geometry" />
        </mxCell>
        <mxCell id="VDo1j2sRn1x3x7xI_nRA-151" value="0.189 d" style="text;html=1;align=center;verticalAlign=middle;resizable=0;points=[];autosize=1;strokeColor=none;fillColor=none;" vertex="1" parent="1">
          <mxGeometry x="1130" y="498" width="60" height="30" as="geometry" />
        </mxCell>
        <mxCell id="VDo1j2sRn1x3x7xI_nRA-152" value="0.216 d" style="text;html=1;align=center;verticalAlign=middle;resizable=0;points=[];autosize=1;strokeColor=none;fillColor=none;" vertex="1" parent="1">
          <mxGeometry x="1181" y="498" width="60" height="30" as="geometry" />
        </mxCell>
        <mxCell id="VDo1j2sRn1x3x7xI_nRA-153" value="0.216 d" style="text;html=1;align=center;verticalAlign=middle;resizable=0;points=[];autosize=1;strokeColor=none;fillColor=none;" vertex="1" parent="1">
          <mxGeometry x="1181" y="325" width="60" height="30" as="geometry" />
        </mxCell>
        <mxCell id="VDo1j2sRn1x3x7xI_nRA-154" value="0.216 d" style="text;html=1;align=center;verticalAlign=middle;resizable=0;points=[];autosize=1;strokeColor=none;fillColor=none;" vertex="1" parent="1">
          <mxGeometry x="1181" y="144" width="60" height="30" as="geometry" />
        </mxCell>
        <mxCell id="VDo1j2sRn1x3x7xI_nRA-155" value="0.216 d" style="text;html=1;align=center;verticalAlign=middle;resizable=0;points=[];autosize=1;strokeColor=none;fillColor=none;" vertex="1" parent="1">
          <mxGeometry x="1310" y="325" width="60" height="30" as="geometry" />
        </mxCell>
        <mxCell id="VDo1j2sRn1x3x7xI_nRA-156" value="0.243 d" style="text;html=1;align=center;verticalAlign=middle;resizable=0;points=[];autosize=1;strokeColor=none;fillColor=none;" vertex="1" parent="1">
          <mxGeometry x="1360" y="325" width="60" height="30" as="geometry" />
        </mxCell>
        <mxCell id="VDo1j2sRn1x3x7xI_nRA-157" value="0.243 d" style="text;html=1;align=center;verticalAlign=middle;resizable=0;points=[];autosize=1;strokeColor=none;fillColor=none;" vertex="1" parent="1">
          <mxGeometry x="1490" y="324" width="60" height="30" as="geometry" />
        </mxCell>
        <mxCell id="VDo1j2sRn1x3x7xI_nRA-158" value="7.243 d" style="text;html=1;align=center;verticalAlign=middle;resizable=0;points=[];autosize=1;strokeColor=none;fillColor=none;" vertex="1" parent="1">
          <mxGeometry x="1540" y="325" width="60" height="30" as="geometry" />
        </mxCell>
        <mxCell id="VDo1j2sRn1x3x7xI_nRA-159" value="7.243 d" style="text;html=1;align=center;verticalAlign=middle;resizable=0;points=[];autosize=1;strokeColor=none;fillColor=none;" vertex="1" parent="1">
          <mxGeometry x="1680" y="325" width="60" height="30" as="geometry" />
        </mxCell>
        <mxCell id="VDo1j2sRn1x3x7xI_nRA-160" value="7.27 d" style="text;html=1;align=center;verticalAlign=middle;resizable=0;points=[];autosize=1;strokeColor=none;fillColor=none;" vertex="1" parent="1">
          <mxGeometry x="1730" y="324" width="60" height="30" as="geometry" />
        </mxCell>
        <mxCell id="VDo1j2sRn1x3x7xI_nRA-161" value="7.27 d" style="text;html=1;align=center;verticalAlign=middle;resizable=0;points=[];autosize=1;strokeColor=none;fillColor=none;" vertex="1" parent="1">
          <mxGeometry x="1860" y="325" width="60" height="30" as="geometry" />
        </mxCell>
        <mxCell id="VDo1j2sRn1x3x7xI_nRA-162" value="7.297 d" style="text;html=1;align=center;verticalAlign=middle;resizable=0;points=[];autosize=1;strokeColor=none;fillColor=none;" vertex="1" parent="1">
          <mxGeometry x="1910" y="325" width="60" height="30" as="geometry" />
        </mxCell>
        <mxCell id="VDo1j2sRn1x3x7xI_nRA-163" value="7.297 d" style="text;html=1;align=center;verticalAlign=middle;resizable=0;points=[];autosize=1;strokeColor=none;fillColor=none;" vertex="1" parent="1">
          <mxGeometry x="2050" y="114" width="60" height="30" as="geometry" />
        </mxCell>
        <mxCell id="VDo1j2sRn1x3x7xI_nRA-164" value="7.297 d" style="text;html=1;align=center;verticalAlign=middle;resizable=0;points=[];autosize=1;strokeColor=none;fillColor=none;" vertex="1" parent="1">
          <mxGeometry x="2060" y="320" width="60" height="30" as="geometry" />
        </mxCell>
        <mxCell id="VDo1j2sRn1x3x7xI_nRA-165" value="7.338 d" style="text;html=1;align=center;verticalAlign=middle;resizable=0;points=[];autosize=1;strokeColor=none;fillColor=none;" vertex="1" parent="1">
          <mxGeometry x="2100" y="114" width="60" height="30" as="geometry" />
        </mxCell>
        <mxCell id="VDo1j2sRn1x3x7xI_nRA-166" value="7.338 d" style="text;html=1;align=center;verticalAlign=middle;resizable=0;points=[];autosize=1;strokeColor=none;fillColor=none;" vertex="1" parent="1">
          <mxGeometry x="2250" y="327" width="60" height="30" as="geometry" />
        </mxCell>
        <mxCell id="VDo1j2sRn1x3x7xI_nRA-167" value="11.297 d" style="text;html=1;align=center;verticalAlign=middle;resizable=0;points=[];autosize=1;strokeColor=none;fillColor=none;" vertex="1" parent="1">
          <mxGeometry x="2105" y="320" width="70" height="30" as="geometry" />
        </mxCell>
        <mxCell id="VDo1j2sRn1x3x7xI_nRA-168" value="14.338 d" style="text;html=1;align=center;verticalAlign=middle;resizable=0;points=[];autosize=1;strokeColor=none;fillColor=none;" vertex="1" parent="1">
          <mxGeometry x="2300" y="327" width="70" height="30" as="geometry" />
        </mxCell>
        <mxCell id="VDo1j2sRn1x3x7xI_nRA-169" value="14.338 d" style="text;html=1;align=center;verticalAlign=middle;resizable=0;points=[];autosize=1;strokeColor=none;fillColor=none;" vertex="1" parent="1">
          <mxGeometry x="2430" y="324" width="70" height="30" as="geometry" />
        </mxCell>
        <mxCell id="VDo1j2sRn1x3x7xI_nRA-170" value="14.338 d" style="text;html=1;align=center;verticalAlign=middle;resizable=0;points=[];autosize=1;strokeColor=none;fillColor=none;" vertex="1" parent="1">
          <mxGeometry x="2490" y="324" width="70" height="30" as="geometry" />
        </mxCell>
        <mxCell id="VDo1j2sRn1x3x7xI_nRA-171" value="14.338 d" style="text;html=1;align=center;verticalAlign=middle;resizable=0;points=[];autosize=1;strokeColor=none;fillColor=none;" vertex="1" parent="1">
          <mxGeometry x="2490" y="350" width="70" height="30" as="geometry" />
        </mxCell>
        <mxCell id="VDo1j2sRn1x3x7xI_nRA-172" value="14.338 d" style="text;html=1;align=center;verticalAlign=middle;resizable=0;points=[];autosize=1;strokeColor=none;fillColor=none;" vertex="1" parent="1">
          <mxGeometry x="2430" y="350" width="70" height="30" as="geometry" />
        </mxCell>
        <mxCell id="VDo1j2sRn1x3x7xI_nRA-173" value="14.338 d" style="text;html=1;align=center;verticalAlign=middle;resizable=0;points=[];autosize=1;strokeColor=none;fillColor=none;" vertex="1" parent="1">
          <mxGeometry x="2300" y="354" width="70" height="30" as="geometry" />
        </mxCell>
        <mxCell id="VDo1j2sRn1x3x7xI_nRA-174" value="7.338 d" style="text;html=1;align=center;verticalAlign=middle;resizable=0;points=[];autosize=1;strokeColor=none;fillColor=none;" vertex="1" parent="1">
          <mxGeometry x="2250" y="350" width="60" height="30" as="geometry" />
        </mxCell>
        <mxCell id="VDo1j2sRn1x3x7xI_nRA-175" value="7.338 d" style="text;html=1;align=center;verticalAlign=middle;resizable=0;points=[];autosize=1;strokeColor=none;fillColor=none;" vertex="1" parent="1">
          <mxGeometry x="2105" y="144" width="60" height="30" as="geometry" />
        </mxCell>
        <mxCell id="VDo1j2sRn1x3x7xI_nRA-176" value="7.338 d" style="text;html=1;align=center;verticalAlign=middle;resizable=0;points=[];autosize=1;strokeColor=none;fillColor=none;" vertex="1" parent="1">
          <mxGeometry x="2110" y="340" width="60" height="30" as="geometry" />
        </mxCell>
        <mxCell id="VDo1j2sRn1x3x7xI_nRA-177" value="3.338 d" style="text;html=1;align=center;verticalAlign=middle;resizable=0;points=[];autosize=1;strokeColor=none;fillColor=none;" vertex="1" parent="1">
          <mxGeometry x="2060" y="340" width="60" height="30" as="geometry" />
        </mxCell>
        <mxCell id="VDo1j2sRn1x3x7xI_nRA-178" value="7.297 d" style="text;html=1;align=center;verticalAlign=middle;resizable=0;points=[];autosize=1;strokeColor=none;fillColor=none;" vertex="1" parent="1">
          <mxGeometry x="2050" y="140" width="60" height="30" as="geometry" />
        </mxCell>
        <mxCell id="VDo1j2sRn1x3x7xI_nRA-179" value="7.297 d" style="text;html=1;align=center;verticalAlign=middle;resizable=0;points=[];autosize=1;strokeColor=none;fillColor=none;" vertex="1" parent="1">
          <mxGeometry x="1910" y="350" width="60" height="30" as="geometry" />
        </mxCell>
        <mxCell id="VDo1j2sRn1x3x7xI_nRA-180" value="7.27 d" style="text;html=1;align=center;verticalAlign=middle;resizable=0;points=[];autosize=1;strokeColor=none;fillColor=none;" vertex="1" parent="1">
          <mxGeometry x="1860" y="350" width="60" height="30" as="geometry" />
        </mxCell>
        <mxCell id="VDo1j2sRn1x3x7xI_nRA-181" value="7.27 d" style="text;html=1;align=center;verticalAlign=middle;resizable=0;points=[];autosize=1;strokeColor=none;fillColor=none;" vertex="1" parent="1">
          <mxGeometry x="1730" y="350" width="60" height="30" as="geometry" />
        </mxCell>
        <mxCell id="VDo1j2sRn1x3x7xI_nRA-182" value="7.243 d" style="text;html=1;align=center;verticalAlign=middle;resizable=0;points=[];autosize=1;strokeColor=none;fillColor=none;" vertex="1" parent="1">
          <mxGeometry x="1680" y="350" width="60" height="30" as="geometry" />
        </mxCell>
        <mxCell id="VDo1j2sRn1x3x7xI_nRA-183" value="7.243 d" style="text;html=1;align=center;verticalAlign=middle;resizable=0;points=[];autosize=1;strokeColor=none;fillColor=none;" vertex="1" parent="1">
          <mxGeometry x="1540" y="350" width="60" height="30" as="geometry" />
        </mxCell>
        <mxCell id="VDo1j2sRn1x3x7xI_nRA-184" value="0.243 d" style="text;html=1;align=center;verticalAlign=middle;resizable=0;points=[];autosize=1;strokeColor=none;fillColor=none;" vertex="1" parent="1">
          <mxGeometry x="1490" y="350" width="60" height="30" as="geometry" />
        </mxCell>
        <mxCell id="VDo1j2sRn1x3x7xI_nRA-185" value="0.243 d" style="text;html=1;align=center;verticalAlign=middle;resizable=0;points=[];autosize=1;strokeColor=none;fillColor=none;" vertex="1" parent="1">
          <mxGeometry x="1360" y="350" width="60" height="30" as="geometry" />
        </mxCell>
        <mxCell id="VDo1j2sRn1x3x7xI_nRA-186" value="0.216 d" style="text;html=1;align=center;verticalAlign=middle;resizable=0;points=[];autosize=1;strokeColor=none;fillColor=none;" vertex="1" parent="1">
          <mxGeometry x="1310" y="350" width="60" height="30" as="geometry" />
        </mxCell>
        <mxCell id="VDo1j2sRn1x3x7xI_nRA-187" value="0.216 d" style="text;html=1;align=center;verticalAlign=middle;resizable=0;points=[];autosize=1;strokeColor=none;fillColor=none;" vertex="1" parent="1">
          <mxGeometry x="1181" y="170" width="60" height="30" as="geometry" />
        </mxCell>
        <mxCell id="VDo1j2sRn1x3x7xI_nRA-188" value="0.189 d" style="text;html=1;align=center;verticalAlign=middle;resizable=0;points=[];autosize=1;strokeColor=none;fillColor=none;" vertex="1" parent="1">
          <mxGeometry x="1130" y="170" width="60" height="30" as="geometry" />
        </mxCell>
        <mxCell id="VDo1j2sRn1x3x7xI_nRA-189" value="0.216 d" style="text;html=1;align=center;verticalAlign=middle;resizable=0;points=[];autosize=1;strokeColor=none;fillColor=none;" vertex="1" parent="1">
          <mxGeometry x="1181" y="350" width="60" height="30" as="geometry" />
        </mxCell>
        <mxCell id="VDo1j2sRn1x3x7xI_nRA-190" value="0.189 d" style="text;html=1;align=center;verticalAlign=middle;resizable=0;points=[];autosize=1;strokeColor=none;fillColor=none;" vertex="1" parent="1">
          <mxGeometry x="1130" y="350" width="60" height="30" as="geometry" />
        </mxCell>
        <mxCell id="VDo1j2sRn1x3x7xI_nRA-191" value="0.216 d" style="text;html=1;align=center;verticalAlign=middle;resizable=0;points=[];autosize=1;strokeColor=none;fillColor=none;" vertex="1" parent="1">
          <mxGeometry x="1181" y="520" width="60" height="30" as="geometry" />
        </mxCell>
        <mxCell id="VDo1j2sRn1x3x7xI_nRA-192" value="0.189 d" style="text;html=1;align=center;verticalAlign=middle;resizable=0;points=[];autosize=1;strokeColor=none;fillColor=none;" vertex="1" parent="1">
          <mxGeometry x="1130" y="520" width="60" height="30" as="geometry" />
        </mxCell>
        <mxCell id="VDo1j2sRn1x3x7xI_nRA-193" value="0.189 d" style="text;html=1;align=center;verticalAlign=middle;resizable=0;points=[];autosize=1;strokeColor=none;fillColor=none;" vertex="1" parent="1">
          <mxGeometry x="1000" y="350" width="60" height="30" as="geometry" />
        </mxCell>
        <mxCell id="VDo1j2sRn1x3x7xI_nRA-194" value="0.162 d" style="text;html=1;align=center;verticalAlign=middle;resizable=0;points=[];autosize=1;strokeColor=none;fillColor=none;" vertex="1" parent="1">
          <mxGeometry x="950" y="350" width="60" height="30" as="geometry" />
        </mxCell>
        <mxCell id="VDo1j2sRn1x3x7xI_nRA-195" value="0.162 d" style="text;html=1;align=center;verticalAlign=middle;resizable=0;points=[];autosize=1;strokeColor=none;fillColor=none;" vertex="1" parent="1">
          <mxGeometry x="800" y="350" width="60" height="30" as="geometry" />
        </mxCell>
        <mxCell id="VDo1j2sRn1x3x7xI_nRA-196" value="0.152 d" style="text;html=1;align=center;verticalAlign=middle;resizable=0;points=[];autosize=1;strokeColor=none;fillColor=none;" vertex="1" parent="1">
          <mxGeometry x="750" y="350" width="60" height="30" as="geometry" />
        </mxCell>
        <mxCell id="VDo1j2sRn1x3x7xI_nRA-197" value="0.162 d" style="text;html=1;align=center;verticalAlign=middle;resizable=0;points=[];autosize=1;strokeColor=none;fillColor=none;" vertex="1" parent="1">
          <mxGeometry x="800" y="170" width="60" height="30" as="geometry" />
        </mxCell>
        <mxCell id="VDo1j2sRn1x3x7xI_nRA-198" value="0.122 d" style="text;html=1;align=center;verticalAlign=middle;resizable=0;points=[];autosize=1;strokeColor=none;fillColor=none;" vertex="1" parent="1">
          <mxGeometry x="750" y="170" width="60" height="30" as="geometry" />
        </mxCell>
        <mxCell id="VDo1j2sRn1x3x7xI_nRA-202" value="0.152 d" style="text;html=1;align=center;verticalAlign=middle;resizable=0;points=[];autosize=1;strokeColor=none;fillColor=none;" vertex="1" parent="1">
          <mxGeometry x="610" y="350" width="60" height="30" as="geometry" />
        </mxCell>
        <mxCell id="VDo1j2sRn1x3x7xI_nRA-203" value="0.146 d" style="text;html=1;align=center;verticalAlign=middle;resizable=0;points=[];autosize=1;strokeColor=none;fillColor=none;" vertex="1" parent="1">
          <mxGeometry x="560" y="350" width="60" height="30" as="geometry" />
        </mxCell>
        <mxCell id="VDo1j2sRn1x3x7xI_nRA-204" value="0.146 d" style="text;html=1;align=center;verticalAlign=middle;resizable=0;points=[];autosize=1;strokeColor=none;fillColor=none;" vertex="1" parent="1">
          <mxGeometry x="420" y="350" width="60" height="30" as="geometry" />
        </mxCell>
        <mxCell id="VDo1j2sRn1x3x7xI_nRA-205" value="0.021 d" style="text;html=1;align=center;verticalAlign=middle;resizable=0;points=[];autosize=1;strokeColor=none;fillColor=none;" vertex="1" parent="1">
          <mxGeometry x="370" y="350" width="60" height="30" as="geometry" />
        </mxCell>
        <mxCell id="VDo1j2sRn1x3x7xI_nRA-206" value="0.021 d" style="text;html=1;align=center;verticalAlign=middle;resizable=0;points=[];autosize=1;strokeColor=none;fillColor=none;" vertex="1" parent="1">
          <mxGeometry x="215" y="350" width="60" height="30" as="geometry" />
        </mxCell>
        <mxCell id="VDo1j2sRn1x3x7xI_nRA-207" value="0" style="text;html=1;align=center;verticalAlign=middle;resizable=0;points=[];autosize=1;strokeColor=none;fillColor=none;" vertex="1" parent="1">
          <mxGeometry x="185" y="354" width="30" height="30" as="geometry" />
        </mxCell>
        <mxCell id="VDo1j2sRn1x3x7xI_nRA-208" value="h = 0 = 0" style="text;html=1;align=center;verticalAlign=middle;resizable=0;points=[];autosize=1;strokeColor=none;fillColor=none;" vertex="1" parent="1">
          <mxGeometry x="185" y="253" width="70" height="30" as="geometry" />
        </mxCell>
        <mxCell id="VDo1j2sRn1x3x7xI_nRA-209" value="h = 0 = 0" style="text;html=1;align=center;verticalAlign=middle;resizable=0;points=[];autosize=1;strokeColor=none;fillColor=none;" vertex="1" parent="1">
          <mxGeometry x="575" y="277" width="70" height="30" as="geometry" />
        </mxCell>
        <mxCell id="VDo1j2sRn1x3x7xI_nRA-210" value="h = 0 = 0" style="text;html=1;align=center;verticalAlign=middle;resizable=0;points=[];autosize=1;strokeColor=none;fillColor=none;" vertex="1" parent="1">
          <mxGeometry x="395" y="267" width="70" height="30" as="geometry" />
        </mxCell>
        <mxCell id="VDo1j2sRn1x3x7xI_nRA-211" value="h = 0 = 0" style="text;html=1;align=center;verticalAlign=middle;resizable=0;points=[];autosize=1;strokeColor=none;fillColor=none;" vertex="1" parent="1">
          <mxGeometry x="765" y="300" width="70" height="30" as="geometry" />
        </mxCell>
        <mxCell id="VDo1j2sRn1x3x7xI_nRA-212" value="h = 0.03 = 0.01" style="text;html=1;align=center;verticalAlign=middle;resizable=0;points=[];autosize=1;strokeColor=none;fillColor=none;" vertex="1" parent="1">
          <mxGeometry x="750" y="113" width="100" height="30" as="geometry" />
        </mxCell>
        <mxCell id="VDo1j2sRn1x3x7xI_nRA-213" value="h = 0 = 0" style="text;html=1;align=center;verticalAlign=middle;resizable=0;points=[];autosize=1;strokeColor=none;fillColor=none;" vertex="1" parent="1">
          <mxGeometry x="964" y="290" width="70" height="30" as="geometry" />
        </mxCell>
        <mxCell id="VDo1j2sRn1x3x7xI_nRA-214" value="h = 0 = 0" style="text;html=1;align=center;verticalAlign=middle;resizable=0;points=[];autosize=1;strokeColor=none;fillColor=none;" vertex="1" parent="1">
          <mxGeometry x="1150" y="110" width="70" height="30" as="geometry" />
        </mxCell>
        <mxCell id="VDo1j2sRn1x3x7xI_nRA-215" value="h = 0 = 0" style="text;html=1;align=center;verticalAlign=middle;resizable=0;points=[];autosize=1;strokeColor=none;fillColor=none;" vertex="1" parent="1">
          <mxGeometry x="1141" y="297" width="70" height="30" as="geometry" />
        </mxCell>
        <mxCell id="VDo1j2sRn1x3x7xI_nRA-216" value="h = 0 = 0" style="text;html=1;align=center;verticalAlign=middle;resizable=0;points=[];autosize=1;strokeColor=none;fillColor=none;" vertex="1" parent="1">
          <mxGeometry x="1141" y="478" width="70" height="30" as="geometry" />
        </mxCell>
        <mxCell id="VDo1j2sRn1x3x7xI_nRA-217" value="h = 0 = 0" style="text;html=1;align=center;verticalAlign=middle;resizable=0;points=[];autosize=1;strokeColor=none;fillColor=none;" vertex="1" parent="1">
          <mxGeometry x="1325" y="294" width="70" height="30" as="geometry" />
        </mxCell>
        <mxCell id="VDo1j2sRn1x3x7xI_nRA-218" value="h = 0 = 0" style="text;html=1;align=center;verticalAlign=middle;resizable=0;points=[];autosize=1;strokeColor=none;fillColor=none;" vertex="1" parent="1">
          <mxGeometry x="1505" y="296" width="70" height="30" as="geometry" />
        </mxCell>
        <mxCell id="VDo1j2sRn1x3x7xI_nRA-219" value="h = 0 = 0" style="text;html=1;align=center;verticalAlign=middle;resizable=0;points=[];autosize=1;strokeColor=none;fillColor=none;" vertex="1" parent="1">
          <mxGeometry x="1690" y="294" width="70" height="30" as="geometry" />
        </mxCell>
        <mxCell id="VDo1j2sRn1x3x7xI_nRA-220" value="h = 0 = 0" style="text;html=1;align=center;verticalAlign=middle;resizable=0;points=[];autosize=1;strokeColor=none;fillColor=none;" vertex="1" parent="1">
          <mxGeometry x="1860" y="300" width="70" height="30" as="geometry" />
        </mxCell>
        <mxCell id="VDo1j2sRn1x3x7xI_nRA-221" value="h = 0 = 0" style="text;html=1;align=center;verticalAlign=middle;resizable=0;points=[];autosize=1;strokeColor=none;fillColor=none;" vertex="1" parent="1">
          <mxGeometry x="2060" y="84" width="70" height="30" as="geometry" />
        </mxCell>
        <mxCell id="VDo1j2sRn1x3x7xI_nRA-222" value="h = 3.959 = 3.959" style="text;html=1;align=center;verticalAlign=middle;resizable=0;points=[];autosize=1;strokeColor=none;fillColor=none;" vertex="1" parent="1">
          <mxGeometry x="2045" y="290" width="120" height="30" as="geometry" />
        </mxCell>
        <mxCell id="VDo1j2sRn1x3x7xI_nRA-223" value="h = 0 = 0" style="text;html=1;align=center;verticalAlign=middle;resizable=0;points=[];autosize=1;strokeColor=none;fillColor=none;" vertex="1" parent="1">
          <mxGeometry x="2260" y="295" width="70" height="30" as="geometry" />
        </mxCell>
        <mxCell id="VDo1j2sRn1x3x7xI_nRA-224" value="h = 0 = 0" style="text;html=1;align=center;verticalAlign=middle;resizable=0;points=[];autosize=1;strokeColor=none;fillColor=none;" vertex="1" parent="1">
          <mxGeometry x="2450" y="297" width="70" height="30" as="geometry" />
        </mxCell>
      </root>
    </mxGraphModel>
  </diagram>
</mxfile>
